# Blender 3.4.1
# www.blender.org
mtllib steak.mtl
o STEAK
v -0.665970 -0.000000 0.241574
v -0.671817 -0.000000 0.173037
v -0.559993 -0.000000 0.190520
v -0.548861 -0.000000 0.366629
v -0.468410 -0.000000 0.252678
v -0.448006 -0.000000 0.375273
v -0.365225 -0.000000 0.252678
v -0.296471 -0.000000 0.467781
v -0.262039 -0.000000 0.305542
v -0.206667 -0.000000 0.474257
v -0.163259 -0.000000 0.307745
v -0.174058 -0.000000 0.491881
v -0.060074 -0.000000 0.243868
v -0.088489 -0.000000 0.460209
v 0.040909 -0.000000 0.157965
v 0.047458 -0.000000 0.275542
v 0.183970 -0.000000 0.101009
v 0.196701 -0.000000 0.183918
v 0.414680 -0.000000 0.124925
v 0.291679 -0.000000 0.171494
v 0.839451 -0.000000 0.228449
v 0.782183 -0.000000 0.243776
v -0.718041 -0.000000 0.113743
v -0.599575 -0.000000 0.098321
v -0.475018 -0.000000 0.091977
v -0.347604 -0.000000 0.114004
v -0.240013 -0.000000 0.125017
v -0.130220 -0.000000 0.114004
v -0.031449 -0.000000 0.030525
v 0.118001 -0.000000 0.019290
v 0.286612 -0.000000 0.036639
v 0.619526 -0.000000 0.131625
v 0.870288 -0.000000 0.142638
v -0.777449 0.000000 -0.004991
v -0.628864 0.000000 -0.009253
v -0.500901 0.000000 -0.022606
v -0.365225 0.000000 -0.015861
v -0.248824 0.000000 -0.002645
v -0.130220 0.000000 -0.011455
v 0.014816 0.000000 -0.022468
v 0.177473 0.000000 -0.042292
v 0.373169 0.000000 -0.011455
v 0.652566 -0.000000 0.059029
v 0.879099 -0.000000 0.081056
v -0.822358 0.000000 -0.141320
v -0.676619 0.000000 -0.106132
v -0.510260 0.000000 -0.112685
v -0.363022 0.000000 -0.088456
v -0.251026 0.000000 -0.081848
v -0.139030 0.000000 -0.090659
v 0.034640 0.000000 -0.106077
v 0.146636 0.000000 -0.108280
v 0.324711 0.000000 -0.068632
v 0.584284 0.000000 -0.035593
v 0.826236 0.000000 -0.004756
v -0.848790 0.000000 -0.176470
v -0.683200 0.000000 -0.202857
v -0.543300 0.000000 -0.196294
v -0.373659 0.000000 -0.220523
v -0.253229 0.000000 -0.207307
v -0.139030 0.000000 -0.191889
v 0.028032 0.000000 -0.189686
v 0.137825 0.000000 -0.194091
v 0.322508 0.000000 -0.147836
v 0.518204 0.000000 -0.119201
v 0.713901 0.000000 -0.116999
v -0.837776 0.000000 -0.295321
v -0.683202 0.000000 -0.310577
v -0.499247 0.000000 -0.328361
v -0.347604 0.000000 -0.339374
v -0.231202 0.000000 -0.312942
v -0.130220 0.000000 -0.264484
v 0.008208 0.000000 -0.260079
v 0.120204 0.000000 -0.277700
v 0.269645 0.000000 -0.240255
v 0.504989 0.000000 -0.205013
v 0.638279 0.000000 -0.209324
v -0.789318 0.000000 -0.392146
v -0.624459 0.000000 -0.398754
v -0.470613 0.000000 -0.436199
v -0.321172 0.000000 -0.445009
v -0.240013 0.000000 -0.436199
v -0.132422 0.000000 -0.400956
v -0.031440 0.000000 -0.409767
v 0.095975 0.000000 -0.372322
v 0.192552 0.000000 -0.354701
v 0.291679 0.000000 -0.321898
v 0.556871 0.000000 -0.290625
v -0.703415 0.000000 -0.502186
v -0.567190 0.000000 -0.559455
v -0.422155 0.000000 -0.557252
v -0.360819 0.000000 -0.603508
v -0.284066 0.000000 -0.585887
v -0.211717 0.000000 -0.577076
v -0.057871 0.000000 -0.574874
v 0.065138 0.000000 -0.533023
v 0.265239 0.000000 -0.464741
v 0.454328 0.000000 -0.387649
v 0.480421 0.000000 -0.334785
v -0.665970 0.196850 0.241574
v -0.548861 0.196850 0.366629
v -0.559993 0.196850 0.190520
v -0.671817 0.196850 0.173037
v -0.448006 0.196850 0.375273
v -0.468410 0.196850 0.252678
v -0.296471 0.196850 0.467781
v -0.365225 0.196850 0.252678
v -0.206667 0.196850 0.474257
v -0.262039 0.196850 0.305542
v -0.174058 0.196850 0.491881
v -0.163259 0.196850 0.307745
v -0.088489 0.196850 0.460209
v -0.060074 0.196850 0.243868
v 0.047458 0.196850 0.275542
v 0.040909 0.196850 0.157965
v 0.196701 0.196850 0.183918
v 0.183970 0.196850 0.101009
v 0.291679 0.196850 0.171494
v 0.414680 0.196850 0.124925
v 0.782183 0.196850 0.243776
v 0.839451 0.196850 0.228449
v -0.599575 0.196850 0.098321
v -0.718041 0.196850 0.113743
v -0.475018 0.196850 0.091977
v -0.347604 0.196850 0.114004
v -0.240013 0.196850 0.125017
v -0.130220 0.196850 0.114004
v -0.031449 0.196850 0.030525
v 0.118001 0.196850 0.019290
v 0.286612 0.196850 0.036639
v 0.619526 0.196850 0.131625
v 0.870288 0.196850 0.142638
v -0.628864 0.196850 -0.009253
v -0.777449 0.196850 -0.004991
v -0.500901 0.196850 -0.022606
v -0.365225 0.196850 -0.015861
v -0.248824 0.196850 -0.002645
v -0.130220 0.196850 -0.011455
v 0.014816 0.196850 -0.022468
v 0.177473 0.196850 -0.042292
v 0.373169 0.196850 -0.011455
v 0.652566 0.196850 0.059029
v 0.879099 0.196850 0.081056
v -0.676619 0.196850 -0.106132
v -0.822358 0.196850 -0.141320
v -0.510260 0.196850 -0.112685
v -0.363022 0.196850 -0.088456
v -0.251026 0.196850 -0.081848
v -0.139030 0.196850 -0.090659
v 0.034640 0.196850 -0.106077
v 0.146636 0.196850 -0.108280
v 0.324711 0.196850 -0.068632
v 0.584284 0.196850 -0.035593
v 0.826236 0.196850 -0.004756
v -0.683200 0.196850 -0.202857
v -0.848790 0.196850 -0.176470
v -0.543300 0.196850 -0.196294
v -0.373659 0.196850 -0.220523
v -0.253229 0.196850 -0.207307
v -0.139030 0.196850 -0.191889
v 0.028032 0.196850 -0.189686
v 0.137825 0.196850 -0.194091
v 0.322508 0.196850 -0.147836
v 0.518204 0.196850 -0.119201
v 0.713901 0.196850 -0.116999
v -0.683202 0.196850 -0.310577
v -0.837776 0.196850 -0.295321
v -0.499247 0.196850 -0.328361
v -0.347604 0.196850 -0.339374
v -0.231202 0.196850 -0.312942
v -0.130220 0.196850 -0.264484
v 0.008208 0.196850 -0.260079
v 0.120204 0.196850 -0.277700
v 0.269645 0.196850 -0.240255
v 0.504989 0.196850 -0.205013
v 0.638279 0.196850 -0.209324
v -0.624459 0.196850 -0.398754
v -0.789318 0.196850 -0.392146
v -0.470613 0.196850 -0.436199
v -0.321172 0.196850 -0.445009
v -0.240013 0.196850 -0.436199
v -0.132422 0.196850 -0.400956
v -0.031440 0.196850 -0.409767
v 0.095975 0.196850 -0.372322
v 0.192552 0.196850 -0.354701
v 0.291679 0.196850 -0.321898
v 0.556871 0.196850 -0.290625
v -0.567190 0.196850 -0.559455
v -0.703415 0.196850 -0.502186
v -0.422155 0.196850 -0.557252
v -0.360819 0.196850 -0.603508
v -0.284066 0.196850 -0.585887
v -0.211717 0.196850 -0.577076
v -0.057871 0.196850 -0.574874
v 0.065138 0.196850 -0.533023
v 0.265239 0.196850 -0.464741
v 0.454328 0.196850 -0.387649
v 0.480421 0.196850 -0.334785
vn -0.0000 -1.0000 -0.0000
vn -0.0000 1.0000 -0.0000
vn -0.7299 -0.0000 0.6835
vn -0.0854 -0.0000 0.9963
vn -0.5211 -0.0000 0.8535
vn -0.0719 -0.0000 0.9974
vn -0.4755 -0.0000 0.8797
vn 0.3471 -0.0000 0.9378
vn 0.8053 -0.0000 0.5929
vn 0.5232 -0.0000 0.8522
vn 0.1297 -0.0000 0.9916
vn -0.1458 -0.0000 0.9893
vn 0.2585 -0.0000 0.9660
vn 0.9411 -0.0000 0.3382
vn 0.9899 -0.0000 0.1416
vn 0.8514 -0.0000 -0.5245
vn 0.7068 -0.0000 -0.7074
vn 0.7736 -0.0000 -0.6337
vn 0.7066 -0.0000 -0.7076
vn 0.5002 -0.0000 -0.8659
vn 0.8967 -0.0000 -0.4426
vn 0.3775 -0.0000 -0.9260
vn 0.3230 -0.0000 -0.9464
vn 0.3221 -0.0000 -0.9467
vn 0.0143 -0.0000 -0.9999
vn 0.1209 -0.0000 -0.9927
vn 0.2238 -0.0000 -0.9746
vn -0.6021 -0.0000 -0.7984
vn 0.0152 -0.0000 -0.9999
vn -0.3875 -0.0000 -0.9219
vn -0.7883 -0.0000 -0.6154
vn -0.8943 -0.0000 -0.4475
vn -0.8943 -0.0000 -0.4476
vn -0.9957 -0.0000 -0.0923
vn -0.7992 -0.0000 0.6010
vn -0.9498 -0.0000 0.3129
vn -0.8943 -0.0000 0.4475
vn -0.7887 -0.0000 0.6148
vn -0.9964 -0.0000 0.0850
vt 0.418512 0.769860
vt 0.601250 0.074143
vt 0.397834 0.778922
vt 0.588458 0.074143
vt 0.391446 0.742331
vt 0.444987 0.720255
vt 0.633113 0.074143
vt 0.401078 0.707305
vt 0.437011 0.688006
vt 0.651938 0.074143
vt 0.390171 0.675246
vt 0.449734 0.631146
vt 0.684955 0.074143
vt 0.395688 0.637598
vt 0.442254 0.602559
vt 0.701699 0.074143
vt 0.385930 0.606673
vt 0.444282 0.590565
vt 0.708593 0.074143
vt 0.355176 0.581367
vt 0.425397 0.567327
vt 0.725561 0.074143
vt 0.317811 0.559072
vt 0.353651 0.544609
vt 0.768208 0.074143
vt 0.284993 0.520644
vt 0.309407 0.507925
vt 0.800776 0.074143
vt 0.268035 0.446436
vt 0.295506 0.479729
vt 0.818590 0.074143
vt 0.255299 0.303516
vt 0.921820 0.074143
vt 0.071820 0.074143
vt 0.266115 0.319689
vt 0.910795 0.074143
vt 0.384299 0.799551
vt 0.574476 0.074143
vt 0.366984 0.764375
vt 0.351848 0.726345
vt 0.345222 0.684429
vt 0.337271 0.649837
vt 0.322242 0.616888
vt 0.285866 0.595026
vt 0.266577 0.549778
vt 0.254144 0.495558
vt 0.248463 0.382082
vt 0.225378 0.303006
vt 0.088778 0.074143
vt 0.353688 0.830561
vt 0.549785 0.074143
vt 0.336657 0.784845
vt 0.318983 0.746499
vt 0.306737 0.703632
vt 0.298538 0.666069
vt 0.283263 0.630152
vt 0.264510 0.586252
vt 0.241157 0.537811
vt 0.230051 0.473750
vt 0.222416 0.379491
vt 0.205312 0.306778
vt 0.100347 0.074143
vt 0.316079 0.858924
vt 0.523091 0.074143
vt 0.311606 0.809924
vt 0.291984 0.758930
vt 0.283949 0.710622
vt 0.274163 0.675126
vt 0.259586 0.641261
vt 0.236438 0.588931
vt 0.223914 0.554367
vt 0.217409 0.494848
vt 0.200235 0.410707
vt 0.184239 0.332274
vt 0.119091 0.074143
vt 0.307952 0.870852
vt 0.514912 0.074143
vt 0.282249 0.822194
vt 0.269499 0.778034
vt 0.244040 0.727887
vt 0.235415 0.689073
vt 0.228134 0.651962
vt 0.211158 0.599823
vt 0.198185 0.566176
vt 0.193034 0.503906
vt 0.181244 0.440076
vt 0.161241 0.379041
vt 0.148624 0.074143
vt 0.269861 0.879993
vt 0.492714 0.074143
vt 0.248781 0.833580
vt 0.223810 0.778307
vt 0.204359 0.732355
vt 0.200267 0.693396
vt 0.204648 0.656898
vt 0.191384 0.613423
vt 0.174069 0.580489
vt 0.169906 0.530100
vt 0.155979 0.453254
vt 0.140548 0.412296
vt 0.170818 0.074143
vt 0.234656 0.875174
vt 0.472578 0.074143
vt 0.215175 0.824651
vt 0.187278 0.780809
vt 0.168744 0.735309
vt 0.162901 0.709162
vt 0.162479 0.672009
vt 0.149067 0.641565
vt 0.147232 0.598018
vt 0.142497 0.566149
vt 0.142210 0.531883
vt 0.123894 0.446184
vt 0.192215 0.074143
vt 0.191385 0.860115
vt 0.446616 0.074143
vt 0.159192 0.823845
vt 0.419135 0.074143
vt 0.144545 0.778550
vt 0.392159 0.074143
vt 0.123690 0.764382
vt 0.377872 0.074143
vt 0.121052 0.738672
vt 0.363227 0.074143
vt 0.116140 0.715263
vt 0.349672 0.074143
vt 0.100561 0.667230
vt 0.321058 0.074143
vt 0.100561 0.624588
vt 0.296894 0.074143
vt 0.100624 0.555198
vt 0.257573 0.074143
vt 0.104589 0.488299
vt 0.219598 0.074143
vt 0.118255 0.474604
vt 0.208634 0.074143
vt 0.870725 0.357607
vt 0.601250 0.110752
vt 0.892820 0.417045
vt 0.633113 0.110752
vt 0.848136 0.390595
vt 0.853468 0.346749
vt 0.588458 0.110752
vt 0.886164 0.455687
vt 0.651938 0.110752
vt 0.856174 0.432563
vt 0.896782 0.523818
vt 0.684955 0.110752
vt 0.847071 0.470977
vt 0.890539 0.558070
vt 0.701699 0.110752
vt 0.851676 0.516086
vt 0.892232 0.572443
vt 0.708593 0.110752
vt 0.843533 0.553140
vt 0.876471 0.600287
vt 0.725561 0.110752
vt 0.817866 0.583463
vt 0.816593 0.627508
vt 0.768208 0.110752
vt 0.786682 0.610176
vt 0.779668 0.671463
vt 0.800776 0.110752
vt 0.759293 0.656222
vt 0.768067 0.705248
vt 0.818590 0.110752
vt 0.745140 0.745141
vt 0.743538 0.897011
vt 0.910795 0.110752
vt 0.734511 0.916390
vt 0.921820 0.110752
vt 0.071820 0.110752
vt 0.827721 0.364182
vt 0.842171 0.322031
vt 0.574476 0.110752
vt 0.815088 0.409748
vt 0.809558 0.459972
vt 0.802922 0.501422
vt 0.790380 0.540900
vt 0.760021 0.567098
vt 0.743924 0.621313
vt 0.733547 0.686281
vt 0.728806 0.822251
vt 0.709540 0.917001
vt 0.088778 0.110752
vt 0.802410 0.339652
vt 0.816624 0.284876
vt 0.549785 0.110752
vt 0.787660 0.385599
vt 0.777440 0.436963
vt 0.770597 0.481971
vt 0.757849 0.525010
vt 0.742198 0.577609
vt 0.722708 0.635653
vt 0.713440 0.712414
vt 0.707068 0.825357
vt 0.692794 0.912481
vt 0.100347 0.110752
vt 0.781503 0.309602
vt 0.785236 0.250889
vt 0.523091 0.110752
vt 0.765127 0.370706
vt 0.758421 0.428589
vt 0.750254 0.471119
vt 0.738089 0.511697
vt 0.718770 0.574399
vt 0.708318 0.615815
vt 0.702889 0.687131
vt 0.688556 0.787950
vt 0.675206 0.881932
vt 0.119091 0.110752
vt 0.757003 0.294902
vt 0.778454 0.236597
vt 0.514912 0.110752
vt 0.746362 0.347815
vt 0.725114 0.407900
vt 0.717916 0.454409
vt 0.711840 0.498875
vt 0.697672 0.561350
vt 0.686845 0.601666
vt 0.682545 0.676278
vt 0.672706 0.752760
vt 0.656013 0.825894
vt 0.148624 0.110752
vt 0.729071 0.281257
vt 0.746664 0.225644
vt 0.492714 0.110752
vt 0.708232 0.347488
vt 0.691998 0.402548
vt 0.688583 0.449229
vt 0.692239 0.492960
vt 0.681169 0.545054
vt 0.666719 0.584516
vt 0.663245 0.644893
vt 0.651621 0.736971
vt 0.638744 0.786047
vt 0.170818 0.110752
vt 0.701025 0.291958
vt 0.717283 0.231420
vt 0.472578 0.110752
vt 0.677743 0.344488
vt 0.662275 0.399007
vt 0.657399 0.430338
vt 0.657046 0.474856
vt 0.645853 0.511332
vt 0.644322 0.563511
vt 0.640370 0.601697
vt 0.640131 0.642755
vt 0.624844 0.745443
vt 0.192215 0.110752
vt 0.654303 0.292923
vt 0.419135 0.110752
vt 0.681170 0.249462
vt 0.446616 0.110752
vt 0.642079 0.347195
vt 0.392159 0.110752
vt 0.624674 0.364171
vt 0.377872 0.110752
vt 0.622472 0.394977
vt 0.363227 0.110752
vt 0.618373 0.423028
vt 0.349672 0.110752
vt 0.605371 0.480580
vt 0.321058 0.110752
vt 0.605371 0.531676
vt 0.296894 0.110752
vt 0.605424 0.614819
vt 0.257573 0.110752
vt 0.608733 0.694978
vt 0.219598 0.110752
vt 0.620138 0.711388
vt 0.208634 0.110752
s 0
usemtl Material.001
f 1/1/1 2/3/1 3/5/1
f 3/5/1 4/6/1 1/1/1
f 4/6/1 3/5/1 5/8/1
f 5/8/1 6/9/1 4/6/1
f 6/9/1 5/8/1 7/11/1
f 7/11/1 8/12/1 6/9/1
f 8/12/1 7/11/1 9/14/1
f 9/14/1 10/15/1 8/12/1
f 10/15/1 9/14/1 11/17/1
f 11/17/1 12/18/1 10/15/1
f 12/18/1 11/17/1 13/20/1
f 13/20/1 14/21/1 12/18/1
f 14/21/1 13/20/1 15/23/1
f 15/23/1 16/24/1 14/21/1
f 16/24/1 15/23/1 17/26/1
f 17/26/1 18/27/1 16/24/1
f 18/27/1 17/26/1 19/29/1
f 19/29/1 20/30/1 18/27/1
f 20/30/1 19/29/1 21/32/1
f 21/32/1 22/35/1 20/30/1
f 2/3/1 23/37/1 24/39/1
f 24/39/1 3/5/1 2/3/1
f 3/5/1 24/39/1 25/40/1
f 25/40/1 5/8/1 3/5/1
f 5/8/1 25/40/1 26/41/1
f 26/41/1 7/11/1 5/8/1
f 7/11/1 26/41/1 27/42/1
f 27/42/1 9/14/1 7/11/1
f 9/14/1 27/42/1 28/43/1
f 28/43/1 11/17/1 9/14/1
f 11/17/1 28/43/1 29/44/1
f 29/44/1 13/20/1 11/17/1
f 13/20/1 29/44/1 30/45/1
f 30/45/1 15/23/1 13/20/1
f 15/23/1 30/45/1 31/46/1
f 31/46/1 17/26/1 15/23/1
f 17/26/1 31/46/1 32/47/1
f 32/47/1 19/29/1 17/26/1
f 19/29/1 32/47/1 33/48/1
f 33/48/1 21/32/1 19/29/1
f 23/37/1 34/50/1 35/52/1
f 35/52/1 24/39/1 23/37/1
f 24/39/1 35/52/1 36/53/1
f 36/53/1 25/40/1 24/39/1
f 25/40/1 36/53/1 37/54/1
f 37/54/1 26/41/1 25/40/1
f 26/41/1 37/54/1 38/55/1
f 38/55/1 27/42/1 26/41/1
f 27/42/1 38/55/1 39/56/1
f 39/56/1 28/43/1 27/42/1
f 28/43/1 39/56/1 40/57/1
f 40/57/1 29/44/1 28/43/1
f 29/44/1 40/57/1 41/58/1
f 41/58/1 30/45/1 29/44/1
f 30/45/1 41/58/1 42/59/1
f 42/59/1 31/46/1 30/45/1
f 31/46/1 42/59/1 43/60/1
f 43/60/1 32/47/1 31/46/1
f 32/47/1 43/60/1 44/61/1
f 44/61/1 33/48/1 32/47/1
f 34/50/1 45/63/1 46/65/1
f 46/65/1 35/52/1 34/50/1
f 35/52/1 46/65/1 47/66/1
f 47/66/1 36/53/1 35/52/1
f 36/53/1 47/66/1 48/67/1
f 48/67/1 37/54/1 36/53/1
f 37/54/1 48/67/1 49/68/1
f 49/68/1 38/55/1 37/54/1
f 38/55/1 49/68/1 50/69/1
f 50/69/1 39/56/1 38/55/1
f 39/56/1 50/69/1 51/70/1
f 51/70/1 40/57/1 39/56/1
f 40/57/1 51/70/1 52/71/1
f 52/71/1 41/58/1 40/57/1
f 41/58/1 52/71/1 53/72/1
f 53/72/1 42/59/1 41/58/1
f 42/59/1 53/72/1 54/73/1
f 54/73/1 43/60/1 42/59/1
f 43/60/1 54/73/1 55/74/1
f 55/74/1 44/61/1 43/60/1
f 45/63/1 56/76/1 57/78/1
f 57/78/1 46/65/1 45/63/1
f 46/65/1 57/78/1 58/79/1
f 58/79/1 47/66/1 46/65/1
f 47/66/1 58/79/1 59/80/1
f 59/80/1 48/67/1 47/66/1
f 48/67/1 59/80/1 60/81/1
f 60/81/1 49/68/1 48/67/1
f 49/68/1 60/81/1 61/82/1
f 61/82/1 50/69/1 49/68/1
f 50/69/1 61/82/1 62/83/1
f 62/83/1 51/70/1 50/69/1
f 51/70/1 62/83/1 63/84/1
f 63/84/1 52/71/1 51/70/1
f 52/71/1 63/84/1 64/85/1
f 64/85/1 53/72/1 52/71/1
f 53/72/1 64/85/1 65/86/1
f 65/86/1 54/73/1 53/72/1
f 54/73/1 65/86/1 66/87/1
f 66/87/1 55/74/1 54/73/1
f 56/76/1 67/89/1 68/91/1
f 68/91/1 57/78/1 56/76/1
f 57/78/1 68/91/1 69/92/1
f 69/92/1 58/79/1 57/78/1
f 58/79/1 69/92/1 70/93/1
f 70/93/1 59/80/1 58/79/1
f 59/80/1 70/93/1 71/94/1
f 71/94/1 60/81/1 59/80/1
f 60/81/1 71/94/1 72/95/1
f 72/95/1 61/82/1 60/81/1
f 61/82/1 72/95/1 73/96/1
f 73/96/1 62/83/1 61/82/1
f 62/83/1 73/96/1 74/97/1
f 74/97/1 63/84/1 62/83/1
f 63/84/1 74/97/1 75/98/1
f 75/98/1 64/85/1 63/84/1
f 64/85/1 75/98/1 76/99/1
f 76/99/1 65/86/1 64/85/1
f 65/86/1 76/99/1 77/100/1
f 77/100/1 66/87/1 65/86/1
f 67/89/1 78/102/1 79/104/1
f 79/104/1 68/91/1 67/89/1
f 68/91/1 79/104/1 80/105/1
f 80/105/1 69/92/1 68/91/1
f 69/92/1 80/105/1 81/106/1
f 81/106/1 70/93/1 69/92/1
f 70/93/1 81/106/1 82/107/1
f 82/107/1 71/94/1 70/93/1
f 71/94/1 82/107/1 83/108/1
f 83/108/1 72/95/1 71/94/1
f 72/95/1 83/108/1 84/109/1
f 84/109/1 73/96/1 72/95/1
f 73/96/1 84/109/1 85/110/1
f 85/110/1 74/97/1 73/96/1
f 74/97/1 85/110/1 86/111/1
f 86/111/1 75/98/1 74/97/1
f 75/98/1 86/111/1 87/112/1
f 87/112/1 76/99/1 75/98/1
f 76/99/1 87/112/1 88/113/1
f 88/113/1 77/100/1 76/99/1
f 78/102/1 89/115/1 90/117/1
f 90/117/1 79/104/1 78/102/1
f 79/104/1 90/117/1 91/119/1
f 91/119/1 80/105/1 79/104/1
f 80/105/1 91/119/1 92/121/1
f 92/121/1 81/106/1 80/105/1
f 81/106/1 92/121/1 93/123/1
f 93/123/1 82/107/1 81/106/1
f 82/107/1 93/123/1 94/125/1
f 94/125/1 83/108/1 82/107/1
f 83/108/1 94/125/1 95/127/1
f 95/127/1 84/109/1 83/108/1
f 84/109/1 95/127/1 96/129/1
f 96/129/1 85/110/1 84/109/1
f 85/110/1 96/129/1 97/131/1
f 97/131/1 86/111/1 85/110/1
f 86/111/1 97/131/1 98/133/1
f 98/133/1 87/112/1 86/111/1
f 87/112/1 98/133/1 99/135/1
f 99/135/1 88/113/1 87/112/1
f 100/137/2 101/139/2 102/141/2
f 102/141/2 103/142/2 100/137/2
f 101/139/2 104/144/2 105/146/2
f 105/146/2 102/141/2 101/139/2
f 104/144/2 106/147/2 107/149/2
f 107/149/2 105/146/2 104/144/2
f 106/147/2 108/150/2 109/152/2
f 109/152/2 107/149/2 106/147/2
f 108/150/2 110/153/2 111/155/2
f 111/155/2 109/152/2 108/150/2
f 110/153/2 112/156/2 113/158/2
f 113/158/2 111/155/2 110/153/2
f 112/156/2 114/159/2 115/161/2
f 115/161/2 113/158/2 112/156/2
f 114/159/2 116/162/2 117/164/2
f 117/164/2 115/161/2 114/159/2
f 116/162/2 118/165/2 119/167/2
f 119/167/2 117/164/2 116/162/2
f 118/165/2 120/168/2 121/170/2
f 121/170/2 119/167/2 118/165/2
f 103/142/2 102/141/2 122/173/2
f 122/173/2 123/174/2 103/142/2
f 102/141/2 105/146/2 124/176/2
f 124/176/2 122/173/2 102/141/2
f 105/146/2 107/149/2 125/177/2
f 125/177/2 124/176/2 105/146/2
f 107/149/2 109/152/2 126/178/2
f 126/178/2 125/177/2 107/149/2
f 109/152/2 111/155/2 127/179/2
f 127/179/2 126/178/2 109/152/2
f 111/155/2 113/158/2 128/180/2
f 128/180/2 127/179/2 111/155/2
f 113/158/2 115/161/2 129/181/2
f 129/181/2 128/180/2 113/158/2
f 115/161/2 117/164/2 130/182/2
f 130/182/2 129/181/2 115/161/2
f 117/164/2 119/167/2 131/183/2
f 131/183/2 130/182/2 117/164/2
f 119/167/2 121/170/2 132/184/2
f 132/184/2 131/183/2 119/167/2
f 123/174/2 122/173/2 133/186/2
f 133/186/2 134/187/2 123/174/2
f 122/173/2 124/176/2 135/189/2
f 135/189/2 133/186/2 122/173/2
f 124/176/2 125/177/2 136/190/2
f 136/190/2 135/189/2 124/176/2
f 125/177/2 126/178/2 137/191/2
f 137/191/2 136/190/2 125/177/2
f 126/178/2 127/179/2 138/192/2
f 138/192/2 137/191/2 126/178/2
f 127/179/2 128/180/2 139/193/2
f 139/193/2 138/192/2 127/179/2
f 128/180/2 129/181/2 140/194/2
f 140/194/2 139/193/2 128/180/2
f 129/181/2 130/182/2 141/195/2
f 141/195/2 140/194/2 129/181/2
f 130/182/2 131/183/2 142/196/2
f 142/196/2 141/195/2 130/182/2
f 131/183/2 132/184/2 143/197/2
f 143/197/2 142/196/2 131/183/2
f 134/187/2 133/186/2 144/199/2
f 144/199/2 145/200/2 134/187/2
f 133/186/2 135/189/2 146/202/2
f 146/202/2 144/199/2 133/186/2
f 135/189/2 136/190/2 147/203/2
f 147/203/2 146/202/2 135/189/2
f 136/190/2 137/191/2 148/204/2
f 148/204/2 147/203/2 136/190/2
f 137/191/2 138/192/2 149/205/2
f 149/205/2 148/204/2 137/191/2
f 138/192/2 139/193/2 150/206/2
f 150/206/2 149/205/2 138/192/2
f 139/193/2 140/194/2 151/207/2
f 151/207/2 150/206/2 139/193/2
f 140/194/2 141/195/2 152/208/2
f 152/208/2 151/207/2 140/194/2
f 141/195/2 142/196/2 153/209/2
f 153/209/2 152/208/2 141/195/2
f 142/196/2 143/197/2 154/210/2
f 154/210/2 153/209/2 142/196/2
f 145/200/2 144/199/2 155/212/2
f 155/212/2 156/213/2 145/200/2
f 144/199/2 146/202/2 157/215/2
f 157/215/2 155/212/2 144/199/2
f 146/202/2 147/203/2 158/216/2
f 158/216/2 157/215/2 146/202/2
f 147/203/2 148/204/2 159/217/2
f 159/217/2 158/216/2 147/203/2
f 148/204/2 149/205/2 160/218/2
f 160/218/2 159/217/2 148/204/2
f 149/205/2 150/206/2 161/219/2
f 161/219/2 160/218/2 149/205/2
f 150/206/2 151/207/2 162/220/2
f 162/220/2 161/219/2 150/206/2
f 151/207/2 152/208/2 163/221/2
f 163/221/2 162/220/2 151/207/2
f 152/208/2 153/209/2 164/222/2
f 164/222/2 163/221/2 152/208/2
f 153/209/2 154/210/2 165/223/2
f 165/223/2 164/222/2 153/209/2
f 156/213/2 155/212/2 166/225/2
f 166/225/2 167/226/2 156/213/2
f 155/212/2 157/215/2 168/228/2
f 168/228/2 166/225/2 155/212/2
f 157/215/2 158/216/2 169/229/2
f 169/229/2 168/228/2 157/215/2
f 158/216/2 159/217/2 170/230/2
f 170/230/2 169/229/2 158/216/2
f 159/217/2 160/218/2 171/231/2
f 171/231/2 170/230/2 159/217/2
f 160/218/2 161/219/2 172/232/2
f 172/232/2 171/231/2 160/218/2
f 161/219/2 162/220/2 173/233/2
f 173/233/2 172/232/2 161/219/2
f 162/220/2 163/221/2 174/234/2
f 174/234/2 173/233/2 162/220/2
f 163/221/2 164/222/2 175/235/2
f 175/235/2 174/234/2 163/221/2
f 164/222/2 165/223/2 176/236/2
f 176/236/2 175/235/2 164/222/2
f 167/226/2 166/225/2 177/238/2
f 177/238/2 178/239/2 167/226/2
f 166/225/2 168/228/2 179/241/2
f 179/241/2 177/238/2 166/225/2
f 168/228/2 169/229/2 180/242/2
f 180/242/2 179/241/2 168/228/2
f 169/229/2 170/230/2 181/243/2
f 181/243/2 180/242/2 169/229/2
f 170/230/2 171/231/2 182/244/2
f 182/244/2 181/243/2 170/230/2
f 171/231/2 172/232/2 183/245/2
f 183/245/2 182/244/2 171/231/2
f 172/232/2 173/233/2 184/246/2
f 184/246/2 183/245/2 172/232/2
f 173/233/2 174/234/2 185/247/2
f 185/247/2 184/246/2 173/233/2
f 174/234/2 175/235/2 186/248/2
f 186/248/2 185/247/2 174/234/2
f 175/235/2 176/236/2 187/249/2
f 187/249/2 186/248/2 175/235/2
f 178/239/2 177/238/2 188/251/2
f 188/251/2 189/253/2 178/239/2
f 177/238/2 179/241/2 190/255/2
f 190/255/2 188/251/2 177/238/2
f 179/241/2 180/242/2 191/257/2
f 191/257/2 190/255/2 179/241/2
f 180/242/2 181/243/2 192/259/2
f 192/259/2 191/257/2 180/242/2
f 181/243/2 182/244/2 193/261/2
f 193/261/2 192/259/2 181/243/2
f 182/244/2 183/245/2 194/263/2
f 194/263/2 193/261/2 182/244/2
f 183/245/2 184/246/2 195/265/2
f 195/265/2 194/263/2 183/245/2
f 184/246/2 185/247/2 196/267/2
f 196/267/2 195/265/2 184/246/2
f 185/247/2 186/248/2 197/269/2
f 197/269/2 196/267/2 185/247/2
f 186/248/2 187/249/2 198/271/2
f 198/271/2 197/269/2 186/248/2
f 1/2/3 4/7/3 101/140/3
f 101/140/3 100/138/3 1/2/3
f 4/7/4 6/10/4 104/145/4
f 104/145/4 101/140/4 4/7/4
f 6/10/5 8/13/5 106/148/5
f 106/148/5 104/145/5 6/10/5
f 8/13/6 10/16/6 108/151/6
f 108/151/6 106/148/6 8/13/6
f 10/16/7 12/19/7 110/154/7
f 110/154/7 108/151/7 10/16/7
f 12/19/8 14/22/8 112/157/8
f 112/157/8 110/154/8 12/19/8
f 14/22/9 16/25/9 114/160/9
f 114/160/9 112/157/9 14/22/9
f 16/25/10 18/28/10 116/163/10
f 116/163/10 114/160/10 16/25/10
f 18/28/11 20/31/11 118/166/11
f 118/166/11 116/163/11 18/28/11
f 20/31/12 22/36/12 120/169/12
f 120/169/12 118/166/12 20/31/12
f 22/36/13 21/33/13 121/171/13
f 121/171/13 120/169/13 22/36/13
f 21/34/14 33/49/14 132/185/14
f 132/185/14 121/172/14 21/34/14
f 33/49/15 44/62/15 143/198/15
f 143/198/15 132/185/15 33/49/15
f 44/62/16 55/75/16 154/211/16
f 154/211/16 143/198/16 44/62/16
f 55/75/17 66/88/17 165/224/17
f 165/224/17 154/211/17 55/75/17
f 66/88/18 77/101/18 176/237/18
f 176/237/18 165/224/18 66/88/18
f 77/101/19 88/114/19 187/250/19
f 187/250/19 176/237/19 77/101/19
f 88/114/20 99/136/20 198/272/20
f 198/272/20 187/250/20 88/114/20
f 99/136/21 98/134/21 197/270/21
f 197/270/21 198/272/21 99/136/21
f 98/134/22 97/132/22 196/268/22
f 196/268/22 197/270/22 98/134/22
f 97/132/23 96/130/23 195/266/23
f 195/266/23 196/268/23 97/132/23
f 96/130/24 95/128/24 194/264/24
f 194/264/24 195/266/24 96/130/24
f 95/128/25 94/126/25 193/262/25
f 193/262/25 194/264/25 95/128/25
f 94/126/26 93/124/26 192/260/26
f 192/260/26 193/262/26 94/126/26
f 93/124/27 92/122/27 191/258/27
f 191/258/27 192/260/27 93/124/27
f 92/122/28 91/120/28 190/256/28
f 190/256/28 191/258/28 92/122/28
f 91/120/29 90/118/29 188/252/29
f 188/252/29 190/256/29 91/120/29
f 90/118/30 89/116/30 189/254/30
f 189/254/30 188/252/30 90/118/30
f 89/116/31 78/103/31 178/240/31
f 178/240/31 189/254/31 89/116/31
f 78/103/32 67/90/32 167/227/32
f 167/227/33 178/240/33 78/103/33
f 67/90/34 56/77/34 156/214/34
f 156/214/34 167/227/34 67/90/34
f 56/77/35 45/64/35 145/201/35
f 145/201/35 156/214/35 56/77/35
f 45/64/36 34/51/36 134/188/36
f 134/188/36 145/201/36 45/64/36
f 34/51/37 23/38/37 123/175/37
f 123/175/37 134/188/37 34/51/37
f 23/38/38 2/4/38 103/143/38
f 103/143/38 123/175/38 23/38/38
f 2/4/39 1/2/39 100/138/39
f 100/138/39 103/143/39 2/4/39
